<svg id="Layer_1" data-name="Layer 1" xmlns="http://www.w3.org/2000/svg" viewBox="0 0 386.45 386.47"><defs><style>.cls-2{fill:#fff}</style></defs><path d="M214.74 357.78a30.35 30.35 0 1 0 21.51 8.89 30.37 30.37 0 0 0-21.51-8.89zM304 419.8a30.42 30.42 0 1 0-21.5-8.91 30.43 30.43 0 0 0 21.5 8.91zm94.24-274.92a13 13 0 0 0-18.33 0l-88 88-25.66 25.66 123.28 123.34L400 371.41l103.22-103.22a13 13 0 0 0 0-18.33z" transform="translate(-131.06 -130.58)" fill="none"/><path class="cls-2" d="M510.65 242.43l-105-105a23.46 23.46 0 0 0-33.18 0l-88 88L137.92 372a23.49 23.49 0 0 0 0 33.18l105 105a23.46 23.46 0 0 0 33.18 0l131.32-131.34 103.23-103.23a23.49 23.49 0 0 0 0-33.18z" transform="translate(-131.06 -130.58)"/><path d="M503.22 249.9l-105-105a13 13 0 0 0-18.33 0L266.41 258.42l123.31 123.31 113.5-113.5a13 13 0 0 0 0-18.33zm-92.32 30.35a30.38 30.38 0 1 1 8.92-21.5 30.37 30.37 0 0 1-8.92 21.5z" transform="translate(-131.06 -130.58)" fill="#e31837"/><path d="M145.34 379.45a13 13 0 0 0 0 18.33l105 105a13 13 0 0 0 18.33 0L382.1 389.31 258.79 266zm90.91 30.24a30.48 30.48 0 1 1 8.88-21.5 30.47 30.47 0 0 1-8.87 21.5zm46.23-41.77a30.37 30.37 0 1 1-8.91 21.5 30.27 30.27 0 0 1 8.92-21.51z" transform="translate(-131.06 -130.58)" fill="#006491"/><path class="cls-2" d="M298.62 507.17a4.4 4.4 0 1 1 4.4-4.4 4.4 4.4 0 0 1-4.4 4.4zm0-8.13a3.73 3.73 0 1 0 3.73 3.73 3.71 3.71 0 0 0-3.73-3.77zm1.2 6.26l-1.31-2h-.87v2h-.71v-5H299a1.57 1.57 0 0 1 1.64 1.53 1.48 1.48 0 0 1-1.29 1.49l1.35 2zm-.83-4.42h-1.35v1.78H299a.89.89 0 1 0 0-1.78z" transform="translate(-131.06 -130.58)"/></svg>